<svg width="25" height="26" viewBox="0 0 25 26" fill="none" xmlns="http://www.w3.org/2000/svg">
<rect y="0.5" width="25" height="25" rx="12.5" fill="#1470A4"/>
<g clip-path="url(#clip0_2041_1087)">
<path fill-rule="evenodd" clip-rule="evenodd" d="M18.1052 12.8425C18.1683 12.8775 18.2397 12.8944 18.3116 12.8915C18.3836 12.8885 18.4534 12.8657 18.5133 12.8257C18.5733 12.7856 18.6211 12.7298 18.6515 12.6643C18.682 12.5988 18.6939 12.5262 18.6859 12.4544C18.678 12.3826 18.6506 12.3144 18.6066 12.2571C18.5626 12.1999 18.5038 12.1559 18.4366 12.13C18.3693 12.1041 18.2963 12.0971 18.2254 12.11C18.1545 12.1229 18.0886 12.1551 18.0347 12.203L15.6494 10.7935C15.6563 10.7727 15.6622 10.7517 15.6674 10.7306L18.0384 11.1626C18.055 11.2325 18.095 11.2945 18.1517 11.3383C18.2085 11.382 18.2785 11.4049 18.3501 11.403C18.4217 11.401 18.4904 11.3745 18.5447 11.3277C18.5991 11.2809 18.6357 11.2169 18.6485 11.1462C18.6613 11.0755 18.6494 11.0026 18.6149 10.9397C18.5804 10.8768 18.5254 10.8277 18.4591 10.8007C18.3927 10.7736 18.3191 10.7703 18.2507 10.7913C18.1822 10.8123 18.123 10.8563 18.0831 10.9159L15.6886 10.4796C15.6867 10.45 15.6831 10.4206 15.6779 10.3915L17.615 9.90679C17.6272 9.91769 17.6406 9.92716 17.655 9.93501C17.6942 9.95677 17.739 9.96637 17.7837 9.96261C17.8283 9.95885 17.8709 9.94189 17.9059 9.91388C17.941 9.88587 17.9669 9.84806 17.9806 9.80524C17.9942 9.76242 17.9949 9.71651 17.9825 9.67331C17.9701 9.63011 17.9452 9.59157 17.911 9.56255C17.8768 9.53353 17.8347 9.51533 17.7902 9.51027C17.7457 9.50521 17.7006 9.5135 17.6608 9.53411C17.621 9.55471 17.5881 9.58669 17.5664 9.62602C17.5596 9.63843 17.554 9.65145 17.5496 9.6649L15.5973 10.1533C15.5793 10.1184 15.5588 10.0849 15.5361 10.053L16.5411 9.32536C16.6169 9.37983 16.7095 9.40551 16.8024 9.39779C16.8953 9.39008 16.9825 9.34948 17.0483 9.28325C17.1141 9.21702 17.1543 9.12947 17.1617 9.03625C17.1691 8.94303 17.1432 8.85022 17.0886 8.77439C17.0341 8.69856 16.9544 8.64467 16.8639 8.62233C16.7733 8.59999 16.6778 8.61067 16.5944 8.65246C16.511 8.69425 16.4451 8.76442 16.4086 8.85044C16.372 8.93646 16.3671 9.03272 16.3948 9.12201L15.3589 9.87198C15.3398 9.85781 15.32 9.84422 15.2994 9.83154L15.8459 8.31979C15.9393 8.31581 16.0283 8.27864 16.097 8.21491C16.1656 8.15117 16.2094 8.06504 16.2205 7.97189C16.2317 7.87874 16.2094 7.78466 16.1578 7.70646C16.1061 7.62825 16.0284 7.57102 15.9385 7.54499C15.8487 7.51896 15.7525 7.52584 15.6672 7.56438C15.582 7.60293 15.5131 7.67063 15.473 7.75539C15.433 7.84015 15.4242 7.93645 15.4484 8.02707C15.4726 8.11769 15.5282 8.19673 15.6051 8.25006L15.0691 9.73317C15.0454 9.72711 15.0217 9.72218 14.9978 9.71829L14.9508 8.68008C15.0173 8.65506 15.0733 8.60799 15.1096 8.54666C15.1458 8.48534 15.16 8.41344 15.1499 8.3429C15.1398 8.27235 15.106 8.20738 15.054 8.15876C15.002 8.11014 14.9351 8.08078 14.8642 8.07556C14.7933 8.07033 14.7228 8.08955 14.6643 8.13003C14.6058 8.17051 14.5629 8.22982 14.5426 8.29813C14.5223 8.36643 14.5259 8.43964 14.5528 8.50562C14.5797 8.5716 14.6282 8.62638 14.6904 8.66089C14.6936 8.66267 14.6968 8.66433 14.7001 8.66596L14.7476 9.71624C14.6236 9.7343 14.5054 9.78029 14.4017 9.85075C14.3299 9.69582 14.3013 9.46257 14.2707 9.15568C14.1946 8.39213 14.1047 7.68249 14.1603 6.89487C14.1801 6.61453 14.0248 6.70699 13.8125 6.70699C13.6002 6.70699 13.4448 6.61455 13.4646 6.89487C13.5201 7.68246 13.4303 8.39213 13.3542 9.15568C13.3005 9.69381 13.2529 10.0055 12.9681 10.0651C12.9699 9.45805 12.6917 8.03351 12.1607 8.03256C11.2781 8.03103 10.4245 9.37526 9.97679 10.4058C9.53183 11.4301 9.3049 13.2141 9.33816 14.4643C9.39229 16.4995 9.65155 15.9073 10.8332 15.1548C11.7545 14.5683 12.1739 15.6342 12.6165 14.271C13.013 13.0498 13.0554 12.4309 13.0094 10.7749C13.1662 10.7172 13.3113 10.4819 13.4653 10.3104C13.6658 10.0872 13.8883 10.0651 14.0931 10.2444C14.0333 10.4045 14.0243 10.5792 14.0674 10.7446C14.1105 10.91 14.2036 11.0579 14.3338 11.1682L14.0347 12.665C13.9783 12.6822 13.9292 12.7177 13.8953 12.766C13.8613 12.8143 13.8444 12.8726 13.8473 12.9317C13.8501 12.9907 13.8725 13.0471 13.911 13.0919C13.9494 13.1367 14.0017 13.1673 14.0595 13.1789C14.1172 13.1905 14.1772 13.1824 14.2299 13.1559C14.2826 13.1295 14.3249 13.0861 14.3502 13.0327C14.3755 12.9793 14.3823 12.919 14.3695 12.8613C14.3567 12.8036 14.3251 12.7519 14.2797 12.7143L14.5614 11.3046C14.5823 11.3128 14.6033 11.3202 14.6246 11.3267L15.0649 14.3013C15.0044 14.3394 14.9588 14.3973 14.9358 14.4652C14.9128 14.533 14.9138 14.6068 14.9386 14.674C14.9634 14.7413 15.0105 14.7979 15.072 14.8344C15.1335 14.8709 15.2057 14.8851 15.2764 14.8745C15.3471 14.864 15.412 14.8293 15.4602 14.7764C15.5085 14.7235 15.5371 14.6556 15.5413 14.584C15.5455 14.5125 15.525 14.4416 15.4833 14.3834C15.4416 14.3252 15.3812 14.2832 15.3122 14.2644L14.8825 11.3627C14.9177 11.3619 14.9528 11.3589 14.9876 11.3537L16.7739 15.0243C16.6888 15.1089 16.6374 15.2217 16.6293 15.3416C16.6211 15.4615 16.6567 15.5803 16.7295 15.6757C16.8023 15.7712 16.9072 15.8368 17.0247 15.8603C17.1422 15.8838 17.2642 15.8636 17.368 15.8034C17.4717 15.7433 17.55 15.6473 17.5884 15.5335C17.6267 15.4196 17.6223 15.2957 17.5762 15.1848C17.53 15.0739 17.4452 14.9836 17.3375 14.9309C17.2298 14.8782 17.1067 14.8666 16.9912 14.8983L15.2324 11.2765C15.2595 11.263 15.2858 11.2481 15.3113 11.2318L18.0209 13.9561C18.0182 13.9681 18.0161 13.9802 18.0149 13.9925C18.0077 14.0593 18.0229 14.1266 18.0581 14.1837C18.0934 14.2408 18.1466 14.2845 18.2095 14.3078C18.2723 14.3312 18.3411 14.3328 18.4049 14.3124C18.4688 14.2921 18.524 14.251 18.5619 14.1956C18.5998 14.1401 18.6182 14.0736 18.6141 14.0066C18.61 13.9395 18.5837 13.8757 18.5394 13.8253C18.495 13.775 18.4352 13.7409 18.3694 13.7285C18.3035 13.7161 18.2355 13.7261 18.1759 13.7569L15.499 11.0656C15.5081 11.0545 15.5172 11.043 15.5258 11.0314L17.9098 12.4227C17.894 12.5044 17.9044 12.589 17.9395 12.6645C17.9746 12.7399 18.0326 12.8022 18.1052 12.8425ZM18.2071 11.0161C18.2217 10.9894 18.2439 10.9676 18.2709 10.9536C18.2979 10.9395 18.3284 10.9338 18.3587 10.9371C18.3889 10.9404 18.4174 10.9527 18.4407 10.9723C18.464 10.9919 18.481 11.018 18.4895 11.0473C18.498 11.0766 18.4976 11.1078 18.4885 11.1369C18.4793 11.1659 18.4617 11.1916 18.438 11.2107C18.4143 11.2298 18.3855 11.2414 18.3552 11.244C18.3249 11.2467 18.2945 11.2403 18.2678 11.2256C18.2321 11.2059 18.2056 11.1728 18.1942 11.1335C18.1828 11.0942 18.1874 11.052 18.207 11.0161H18.2071ZM16.6117 8.83517C16.6451 8.80377 16.6872 8.78303 16.7324 8.77559C16.7777 8.76814 16.8241 8.77432 16.8658 8.79334C16.9076 8.81236 16.9428 8.84336 16.967 8.88244C16.9911 8.92151 17.0032 8.9669 17.0017 9.01286C17.0001 9.05883 16.985 9.1033 16.9583 9.14066C16.9316 9.17802 16.8944 9.20658 16.8515 9.22275C16.8085 9.23891 16.7618 9.24195 16.7171 9.23147C16.6725 9.22099 16.632 9.19747 16.6006 9.16388C16.5798 9.14158 16.5636 9.11538 16.5529 9.08679C16.5422 9.05819 16.5372 9.02776 16.5383 8.99724C16.5393 8.96672 16.5463 8.93669 16.5589 8.90888C16.5715 8.88108 16.5894 8.85603 16.6117 8.83517ZM15.0956 14.492C15.1103 14.4653 15.1325 14.4435 15.1595 14.4294C15.1864 14.4153 15.217 14.4096 15.2472 14.413C15.2774 14.4163 15.306 14.4285 15.3293 14.4482C15.3526 14.4678 15.3695 14.4939 15.378 14.5232C15.3865 14.5525 15.3861 14.5836 15.377 14.6127C15.3678 14.6418 15.3503 14.6675 15.3266 14.6866C15.3028 14.7056 15.274 14.7172 15.2437 14.7199C15.2134 14.7225 15.183 14.7161 15.1564 14.7014C15.1206 14.6817 15.0942 14.6486 15.0828 14.6093C15.0714 14.57 15.076 14.5278 15.0956 14.492ZM16.9226 15.1618C16.9646 15.1224 17.0173 15.0963 17.074 15.087C17.1308 15.0776 17.189 15.0854 17.2414 15.1092C17.2938 15.1331 17.3379 15.172 17.3682 15.221C17.3986 15.27 17.4137 15.3269 17.4118 15.3846C17.4099 15.4423 17.3909 15.498 17.3574 15.5449C17.3238 15.5918 17.2772 15.6276 17.2233 15.6479C17.1695 15.6681 17.1109 15.6719 17.0549 15.6588C16.9989 15.6456 16.948 15.6161 16.9087 15.574C16.8561 15.5175 16.828 15.4423 16.8306 15.365C16.8332 15.2877 16.8663 15.2146 16.9226 15.1618H16.9226ZM14.707 8.31257C14.7217 8.28589 14.744 8.26419 14.771 8.25021C14.7981 8.23624 14.8286 8.23061 14.8588 8.23405C14.889 8.23749 14.9175 8.24984 14.9408 8.26954C14.964 8.28923 14.9808 8.31539 14.9892 8.34471C14.9976 8.37402 14.9972 8.40517 14.9879 8.43422C14.9787 8.46327 14.961 8.48891 14.9372 8.5079C14.9134 8.5269 14.8846 8.53839 14.8543 8.54092C14.824 8.54346 14.7936 8.53693 14.767 8.52215C14.7313 8.50233 14.705 8.46911 14.6937 8.42982C14.6825 8.39052 14.6872 8.34834 14.707 8.31257ZM15.3063 10.7801C15.258 10.8676 15.185 10.9387 15.0964 10.9846C15.0078 11.0304 14.9076 11.0488 14.8086 11.0375C14.7095 11.0262 14.616 10.9857 14.5399 10.9212C14.4638 10.8566 14.4085 10.7709 14.381 10.6748C14.3535 10.5787 14.355 10.4765 14.3854 10.3813C14.4157 10.2861 14.4736 10.202 14.5515 10.1397C14.6295 10.0775 14.7242 10.0398 14.8235 10.0315C14.9228 10.0232 15.0224 10.0446 15.1096 10.093C15.1675 10.1252 15.2185 10.1685 15.2598 10.2204C15.301 10.2723 15.3316 10.3319 15.3499 10.3957C15.3682 10.4595 15.3737 10.5263 15.3662 10.5923C15.3588 10.6583 15.3384 10.7221 15.3063 10.7802V10.7801Z" fill="white"/>
</g>
<path fill-rule="evenodd" clip-rule="evenodd" d="M9.37943 17.4213C9.37943 17.4213 10.3419 16.4089 11.7524 16.6616C13.4651 16.9684 14.1943 17.4341 15.8057 16.7634C16.3933 18.4501 14.4283 18.3942 13.385 18.3704C11.3605 18.3244 13.8536 19.7304 15.8233 19.1368C16.6664 18.9038 17.7645 18.4723 18.5325 17.9775C19.3006 17.4826 19.5 18.0523 19.5 18.0523C15.6547 24.0801 4.9221 20.288 5.52435 12.3212C5.88203 7.58947 10.5101 3.49819 16.1061 5.50715C16.1979 5.54013 16.2887 5.57458 16.3786 5.61051C7.92991 2.9317 4.21085 14.2083 9.37943 17.4213ZM15.2967 18.9207C15.2967 18.9207 17.2201 17.8444 17.7582 17.2577C17.8857 17.056 18.026 16.9058 18.184 16.8278C18.184 16.8278 17.7798 16.5418 17.4812 16.9044C17.1827 17.267 16.6557 17.9069 15.2967 18.9205V18.9207ZM15.3769 19.0833C15.3769 19.0833 17.4289 18.6242 18.7498 17.6326L19.1917 17.2775C18.7704 16.668 18.2411 16.7326 17.8329 17.4161C17.4706 17.8781 15.3769 19.0833 15.3769 19.0833Z" fill="white"/>
<defs>
<clipPath id="clip0_2041_1087">
<rect width="9.35362" height="9.17658" fill="white" transform="translate(9.33496 6.69238)"/>
</clipPath>
</defs>
</svg>
