<svg width="51" height="50" viewBox="0 0 51 50" fill="none" xmlns="http://www.w3.org/2000/svg">
<rect x="0.333496" width="50" height="50" rx="25" fill="#FEF5EB"/>
<path d="M16.7229 23.9237C16.7229 20.9894 16.7429 18.0543 16.7087 15.1192C16.7005 14.3551 16.9111 14.0523 17.7235 14.0664C20.1974 14.1095 22.6734 14.1036 25.148 14.0664C25.9002 14.056 26.1465 14.3238 26.142 15.0626C26.1174 18.8942 26.1517 22.7259 26.1137 26.5575C26.1048 27.4235 26.4217 27.919 27.1992 28.2464C28.1493 28.6467 29.0592 29.1318 30.0034 29.5574C30.5048 29.7843 30.6202 30.0856 30.3754 30.5893C29.2346 32.9309 28.1044 35.2785 26.9849 37.6321C26.7402 38.1529 26.4232 38.2206 25.9433 37.9914C23.0521 36.6098 20.1617 35.2274 17.2608 33.8681C16.763 33.6345 16.7184 33.2692 16.7191 32.8079C16.7281 29.8483 16.7229 26.8893 16.7229 23.9237ZM17.7593 15.8929L17.455 15.9056C17.4126 16.1288 17.3337 16.346 17.3329 16.567C17.3233 18.5758 17.3181 20.5794 17.3411 22.586C17.3411 22.7943 17.5405 23.0004 17.6469 23.2073C17.7407 22.9841 17.914 22.7609 17.917 22.5377C17.9378 20.5593 17.9348 18.5795 17.9222 16.6005C17.9185 16.3631 17.8165 16.128 17.7593 15.8929ZM17.5814 27.2762L17.885 27.2383C17.885 26.2874 17.8917 25.3359 17.8716 24.3858C17.8716 24.3166 17.6774 24.2511 17.574 24.1841C17.4944 24.3099 17.3508 24.4341 17.3448 24.5613C17.325 25.3455 17.3267 26.1305 17.3501 26.9161C17.353 27.0381 17.5003 27.1579 17.5814 27.2785V27.2762Z" fill="#F5840E"/>
<path d="M30.679 31.321C31.711 31.8084 32.6596 32.2682 33.6186 32.7034C34.0218 32.8864 34.0233 33.1126 33.8463 33.4735C33.0353 35.1281 32.234 36.7887 31.4565 38.4583C31.2415 38.9211 30.9952 38.9665 30.5637 38.75C29.6709 38.2983 28.7565 37.8847 27.7588 37.4107C28.7282 35.3952 29.6813 33.405 30.679 31.321Z" fill="#F5840E"/>
<path d="M17.9925 13.4082C17.7581 11.1338 17.7581 11.1338 19.8808 11.1338C21.3688 11.1338 22.865 11.1509 24.3567 11.1256C24.8775 11.1167 25.1007 11.2848 25.0717 11.8212C25.0412 12.3294 25.065 12.8405 25.065 13.4082H17.9925Z" fill="#F5840E"/>
</svg>
