<svg width="26" height="26" viewBox="0 0 26 26" fill="none" xmlns="http://www.w3.org/2000/svg">
<rect x="0.5" y="0.5" width="25" height="25" rx="12.5" fill="#F5840E"/>
<path d="M19.8455 16.6644H18.3574C18.2785 16.6644 18.2028 16.6958 18.147 16.7516C18.0912 16.8074 18.0598 16.8831 18.0598 16.9621C18.0598 17.041 18.0912 17.1167 18.147 17.1725C18.2028 17.2283 18.2785 17.2597 18.3574 17.2597H19.8455C19.9245 17.2597 20.0002 17.2283 20.056 17.1725C20.1118 17.1167 20.1431 17.041 20.1431 16.9621C20.1431 16.8831 20.1118 16.8074 20.056 16.7516C20.0002 16.6958 19.9245 16.6644 19.8455 16.6644ZM19.1409 14.5439C19.1133 14.5162 19.0804 14.4943 19.0443 14.4793C19.0082 14.4643 18.9695 14.4566 18.9303 14.4566C18.8912 14.4566 18.8525 14.4643 18.8164 14.4793C18.7802 14.4943 18.7474 14.5162 18.7198 14.5439L17.6677 15.5964C17.6142 15.6526 17.5849 15.7276 17.5859 15.8052C17.5869 15.8828 17.6181 15.9569 17.673 16.0118C17.7279 16.0667 17.802 16.0979 17.8796 16.0989C17.9573 16.0999 18.0322 16.0706 18.0885 16.0171L19.1387 14.9632C19.1663 14.9355 19.1883 14.9027 19.2033 14.8666C19.2183 14.8304 19.226 14.7917 19.226 14.7526C19.226 14.7135 19.2183 14.6748 19.2033 14.6386C19.1883 14.6025 19.1663 14.5697 19.1387 14.542L19.1409 14.5439ZM19.1409 18.9632L18.0892 17.91C18.0621 17.8805 18.0293 17.8568 17.9927 17.8403C17.9562 17.8238 17.9168 17.8149 17.8767 17.814C17.8366 17.8131 17.7968 17.8203 17.7596 17.8352C17.7224 17.8501 17.6886 17.8724 17.6602 17.9006C17.6318 17.9289 17.6094 17.9626 17.5944 17.9997C17.5793 18.0369 17.5719 18.0766 17.5726 18.1167C17.5733 18.1568 17.5821 18.1963 17.5985 18.2329C17.6148 18.2694 17.6383 18.3024 17.6677 18.3296L18.7194 19.3817C18.7752 19.4376 18.8509 19.469 18.9299 19.4691C19.0089 19.4692 19.0846 19.4379 19.1405 19.3821C19.1964 19.3263 19.2279 19.2506 19.2279 19.1716C19.228 19.0926 19.1967 19.0168 19.1409 18.9609V18.9632ZM13.3117 14.5811L11.4006 7.44903L10.9266 7.57627L10.764 6.97247C10.7302 6.84599 10.6555 6.7342 10.5517 6.65444C10.4478 6.57467 10.3206 6.53137 10.1896 6.53125C10.1375 6.53116 10.0856 6.53804 10.0352 6.55171L6.58547 7.47582C6.50996 7.49606 6.43918 7.53099 6.37717 7.57859C6.31516 7.62619 6.26313 7.68554 6.22406 7.75325C6.18499 7.82096 6.15964 7.89571 6.14946 7.97322C6.13927 8.05073 6.14446 8.12948 6.16471 8.20499L6.32692 8.81064L5.85742 8.93452L8.6476 19.343H16.5717V14.5811H13.3117ZM6.88309 8.01042C6.90683 8.08272 6.95736 8.14318 7.02429 8.17938C7.09123 8.21558 7.16949 8.22476 7.24299 8.20504C7.31649 8.18532 7.37964 8.1382 7.41947 8.07335C7.45929 8.00851 7.47277 7.93087 7.45712 7.8564L7.74433 7.77939C7.76475 7.85566 7.81464 7.92069 7.88301 7.96018C7.95138 7.99967 8.03264 8.01038 8.10891 7.98996C8.18518 7.96953 8.25021 7.91965 8.2897 7.85127C8.32919 7.7829 8.3399 7.70164 8.31948 7.62537L8.60705 7.54836C8.62901 7.62285 8.6792 7.6858 8.74693 7.72379C8.81466 7.76178 8.89455 7.77179 8.96956 7.75169C9.04456 7.73159 9.10875 7.68297 9.1484 7.61621C9.18806 7.54945 9.20006 7.46983 9.18183 7.39435L9.4694 7.31734C9.48987 7.39361 9.53981 7.45862 9.60822 7.49807C9.67662 7.53753 9.7579 7.54819 9.83417 7.52772C9.91044 7.50724 9.97545 7.45731 10.0149 7.3889C10.0544 7.3205 10.065 7.23922 10.0445 7.16295L10.1882 7.12574L10.3507 7.7314L6.90095 8.65551L6.73837 8.05022L6.88309 8.01042ZM14.5884 18.7478H9.10333L6.58622 9.35528L10.9794 8.1782L12.7514 14.7906L11.8585 15.6834C11.8051 15.7397 11.7757 15.8146 11.7767 15.8922C11.7777 15.9698 11.809 16.044 11.8639 16.0989C11.9187 16.1537 11.9929 16.185 12.0705 16.186C12.1481 16.187 12.223 16.1576 12.2793 16.1042L13.2053 15.1782H14.587L14.5884 18.7478ZM15.9765 18.7478H15.2495V15.1763H15.9765V18.7478Z" fill="white"/>
</svg>
