<svg width="30" height="31" viewBox="0 0 30 31" fill="none" xmlns="http://www.w3.org/2000/svg">
<g filter="url(#filter0_dd_2436_1913)">
<circle cx="14" cy="15" r="14" fill="white"/>
<path fill-rule="evenodd" clip-rule="evenodd" d="M13.6873 8.31483C13.2099 8.14655 12.6673 8.45416 12.4755 9.00167C12.2837 9.54918 12.5152 10.1261 12.9911 10.2929C13.467 10.4597 14.0101 10.1541 14.2029 9.60609C14.3957 9.05809 14.1632 8.48261 13.6873 8.31483ZM14.0361 9.39906C13.8928 9.81018 13.8197 9.08311 13.4616 8.95751C13.1035 8.83192 12.5932 9.3549 12.736 8.94231C12.8788 8.52971 13.2889 8.29962 13.6475 8.42521C14.0062 8.55081 14.1808 8.98744 14.0361 9.39906Z" fill="#91BE3E"/>
<path fill-rule="evenodd" clip-rule="evenodd" d="M13.6505 8.41723C13.2237 8.26759 12.7385 8.54282 12.5663 9.03146C12.3941 9.5201 12.6011 10.0387 13.0274 10.1883C13.4538 10.3379 13.9405 10.0642 14.1136 9.57407C14.2868 9.08396 14.0773 8.56686 13.6505 8.41723ZM14.0361 9.39843C13.8929 9.80956 13.8198 9.08249 13.4616 8.95689C13.1035 8.8313 12.5933 9.35477 12.736 8.94217C12.8788 8.52958 13.2889 8.29948 13.6476 8.42508C14.0062 8.55067 14.1809 8.98731 14.0361 9.39892V9.39843Z" fill="#91BE3E"/>
<path fill-rule="evenodd" clip-rule="evenodd" d="M16.2672 8.22997C18.5662 6.60117 19.6985 8.27266 17.165 10.1051C15 11.6716 14.793 14.0264 15.2909 16.3509C16.9006 13.6168 20.3309 13.0148 20.5119 10.5751C19.9855 12.2593 18.0663 12.4266 16.1902 13.6418C16.334 12.5438 16.8128 11.5577 17.8131 10.8267C18.6795 10.1889 19.7485 9.02377 19.465 7.84877C21.1944 8.49294 21.8199 10.6118 21.003 12.2593C20.3922 13.4907 18.3631 14.5445 16.5935 16.1012C16.357 16.3092 15.2198 17.1805 16.0357 18.8515C17.6252 15.6018 20.7116 15.1946 21.8851 12.4197C23.485 8.63129 19.0455 5.17793 16.2672 8.22997Z" fill="#91BE3E"/>
<path fill-rule="evenodd" clip-rule="evenodd" d="M17.643 8.76035C17.1588 9.37606 16.4244 9.75627 15.8676 10.3533C14.9511 11.3345 14.5302 12.4919 14.4286 13.7385C14.4262 13.764 14.4242 13.7905 14.4222 13.816C14.3506 14.8306 14.4865 15.9025 14.7357 16.9892C13.5333 15.72 12.0973 14.9895 11.0719 13.8165L11.0047 13.74C10.9679 13.6963 10.9311 13.6517 10.8958 13.607C10.8791 13.5869 10.8629 13.5658 10.8467 13.5442C10.5787 13.1996 10.3569 12.8214 10.1869 12.4193C8.57033 8.59551 13.1094 5.11321 15.8803 8.31832C12.4907 5.90701 10.231 9.84556 12.9926 12.7401C13.7845 10.1551 16.2203 9.92406 17.643 8.76035Z" fill="url(#paint0_linear_2436_1913)"/>
<path d="M14.4513 13.9396C14.4616 13.9396 14.4699 13.9317 14.4699 13.922C14.4699 13.9122 14.4616 13.9043 14.4513 13.9043C14.441 13.9043 14.4326 13.9122 14.4326 13.922C14.4326 13.9317 14.441 13.9396 14.4513 13.9396Z" fill="white"/>
<path d="M14.4286 13.7379C14.4261 13.7634 14.4242 13.7899 14.4222 13.8154H13.3532L13.2943 14.0053L13.2634 14.1058C13.2612 14.1137 13.2564 14.1207 13.2499 14.1257C13.2433 14.1306 13.2353 14.1333 13.2271 14.1333C13.2192 14.1334 13.2114 14.131 13.2048 14.1265C13.1982 14.1221 13.1932 14.1157 13.1903 14.1083L13.1162 13.9121L13.1089 13.8929L13.0735 13.7987L12.9901 13.576L12.9617 13.6864L12.9479 13.7354L12.8797 13.9989L12.7326 14.566C12.7306 14.5744 12.7258 14.5818 12.719 14.587C12.7122 14.5923 12.7039 14.5951 12.6953 14.595C12.6867 14.5949 12.6784 14.592 12.6716 14.5868C12.6648 14.5816 12.6598 14.5743 12.6575 14.566L12.3867 13.4867L12.3641 13.3994L12.3151 13.1958L12.266 12.9961L12.2567 12.9593L12.2361 12.8774L12.2253 12.9171L12.2184 12.9397L12.1895 13.0447L12.1566 13.1629L12.1478 13.1963L11.8534 14.254C11.8513 14.2618 11.8468 14.2687 11.8406 14.2738C11.8343 14.2789 11.8267 14.282 11.8186 14.2825C11.8106 14.283 11.8026 14.2811 11.7957 14.2768C11.7888 14.2726 11.7834 14.2663 11.7803 14.2589L11.5056 13.6319L11.4428 13.7919C11.4399 13.7992 11.4349 13.8056 11.4283 13.81C11.4217 13.8144 11.4139 13.8166 11.406 13.8164H11.0724L11.0052 13.7398H11.3785L11.4658 13.5176C11.4685 13.5105 11.4732 13.5044 11.4794 13.5001C11.4857 13.4958 11.4931 13.4935 11.5007 13.4936C11.5082 13.4931 11.5157 13.4949 11.5221 13.4989C11.5285 13.5028 11.5335 13.5087 11.5365 13.5156L11.8058 14.1294L12.0869 13.1197L12.0953 13.0913L12.1286 12.9691L12.1571 12.8661L12.164 12.8396L12.187 12.7577L12.1914 12.741L12.1988 12.7155C12.2013 12.7073 12.2063 12.7001 12.2132 12.6951C12.2201 12.69 12.2285 12.6874 12.2371 12.6875C12.2454 12.6875 12.2535 12.6904 12.2601 12.6957C12.2666 12.7009 12.2711 12.7083 12.2729 12.7165L12.3219 12.9073L12.3357 12.9618L12.371 13.104L12.3764 13.1256L12.4255 13.3219L12.4745 13.5107L12.499 13.6089L12.6982 14.4007L12.8179 13.9381L12.8645 13.758L12.8876 13.6721L12.9013 13.6187L12.92 13.5461L12.9489 13.4352C12.9507 13.4272 12.9551 13.42 12.9614 13.4148C12.9677 13.4096 12.9756 13.4066 12.9838 13.4062C12.9919 13.4057 13 13.4078 13.0069 13.4122C13.0138 13.4166 13.0191 13.4231 13.022 13.4308L13.2065 13.9214L13.2256 13.9739L13.2335 13.9479L13.2894 13.7649C13.2921 13.757 13.2971 13.7502 13.3038 13.7453C13.3104 13.7404 13.3184 13.7376 13.3267 13.7374L14.4286 13.7379Z" fill="white"/>
<path d="M20.5 21.1907C21.1857 19.9922 21.5453 18.6349 21.543 17.2541C21.5433 16.7889 21.5029 16.3245 21.4224 15.8662C21.1055 17.6173 20.1798 19.2 18.8089 20.3346C18.6253 20.4877 18.4126 20.6019 18.1836 20.6703C17.9546 20.7387 17.7141 20.76 17.4766 20.7327C17.2391 20.7055 17.0097 20.6303 16.8021 20.5118C16.5946 20.3933 16.4132 20.2339 16.2691 20.0432L15.1348 18.5405C15.0418 18.4171 14.9215 18.317 14.7832 18.2481C14.6449 18.1792 14.4925 18.1435 14.3381 18.1436H10.0149C9.94709 18.144 9.88056 18.1618 9.82155 18.1951C9.76254 18.2284 9.71302 18.2763 9.67765 18.3341C9.64229 18.3919 9.62225 18.4578 9.61945 18.5255C9.61665 18.5932 9.63116 18.6605 9.66163 18.721L9.83383 19.0644C9.99094 19.3776 10.2262 19.6448 10.5169 19.8404C10.8076 20.0359 11.1438 20.1531 11.493 20.1806L11.7491 20.2007L12.8697 20.289C13.0261 20.3012 13.1774 20.3503 13.3111 20.4324C13.4449 20.5144 13.5572 20.627 13.6389 20.761L14.1472 21.592L14.4318 22.0571L16.0252 24.6642C16.0792 24.7529 16.1599 24.8222 16.2557 24.8621C16.3515 24.9021 16.4576 24.9106 16.5585 24.8864H16.562C18.6022 24.3797 20.4477 23.2825 21.8673 21.732C23.287 20.1816 24.2177 18.2468 24.5431 16.1699C24.2565 17.2424 23.7488 18.2432 23.0525 19.1079C22.3562 19.9725 21.4868 20.682 20.5 21.1907Z" fill="#1870A3"/>
<path d="M5.50767 13.4014C6.23639 11.429 7.5774 9.74152 9.33437 8.58618C8.24955 9.43899 7.41901 10.5726 6.93287 11.864C6.44672 13.1555 6.32354 14.5554 6.57669 15.9119C6.63001 16.2051 6.79116 16.4677 7.02842 16.648C7.26568 16.8283 7.56186 16.9133 7.85863 16.8862L9.2961 16.7523C9.70817 16.7139 10.1228 16.7901 10.4943 16.9725C10.8658 17.1549 11.1797 17.4364 11.4013 17.786H10.0178H9.99423C9.86462 17.7895 9.73812 17.8265 9.62704 17.8933C9.51596 17.9602 9.42409 18.0547 9.36037 18.1676C9.29909 18.2794 9.26623 18.4046 9.2647 18.532C9.26315 18.6595 9.29298 18.7854 9.35154 18.8986L9.51442 19.2224C9.70018 19.5898 9.97705 19.9033 10.3186 20.1331C10.6601 20.3628 11.0548 20.5011 11.4651 20.5348L12.8417 20.6432C12.9414 20.6515 13.0378 20.6831 13.123 20.7356C13.2082 20.788 13.2799 20.8597 13.3323 20.9449L14.9709 23.7507L15.1073 23.9842C15.1263 24.0133 15.1427 24.044 15.1563 24.076C15.2346 24.251 15.2592 24.4453 15.227 24.6343C15.2025 24.7322 15.1411 24.8169 15.0558 24.8708C15.0521 24.8733 15.0482 24.8755 15.044 24.8771C14.9556 24.9232 14.8625 24.9595 14.7663 24.9856C14.6582 25.0117 14.5441 24.9941 14.4489 24.9365C14.3302 24.8708 13.9701 24.495 13.8656 24.338C13.8494 24.3129 13.8327 24.2889 13.8165 24.2629L13.0428 23.188C13.028 23.1597 13.0031 23.138 12.973 23.1273C12.9429 23.1166 12.9098 23.1176 12.8804 23.1301C12.8639 23.1375 12.8491 23.1483 12.837 23.1618C12.8248 23.1752 12.8156 23.191 12.8099 23.2082C12.8041 23.2254 12.8021 23.2436 12.8037 23.2617C12.8054 23.2797 12.8108 23.2972 12.8196 23.3131L13.6119 24.8492C13.6469 24.9176 13.6667 24.9927 13.6699 25.0695C13.6732 25.1463 13.6598 25.2228 13.6307 25.294C13.6017 25.3651 13.5576 25.4291 13.5015 25.4816C13.4454 25.5342 13.3787 25.574 13.3058 25.5983C13.1835 25.6362 13.0518 25.63 12.9336 25.5805C12.8155 25.5311 12.7185 25.4417 12.6597 25.328L12.5341 25.094L11.522 23.2081C11.5112 23.1876 11.4946 23.1709 11.4742 23.1599C11.4538 23.149 11.4307 23.1444 11.4077 23.1468C11.3887 23.1485 11.3705 23.1548 11.3546 23.1651C11.3386 23.1754 11.3254 23.1895 11.3161 23.206C11.3068 23.2226 11.3016 23.2412 11.3011 23.2602C11.3006 23.2791 11.3046 23.298 11.313 23.3151L12.147 25.0322C12.1839 25.1087 12.2036 25.1924 12.2049 25.2774C12.2062 25.3624 12.1889 25.4467 12.1543 25.5243C12.1197 25.602 12.0686 25.6712 12.0046 25.7271C11.9405 25.783 11.8651 25.8242 11.7835 25.848C11.6421 25.8865 11.4915 25.8716 11.3604 25.8063C11.2292 25.741 11.1266 25.6298 11.0721 25.4938L10.736 24.6838L10.2812 23.5898C10.273 23.5687 10.2584 23.5508 10.2395 23.5384C10.2206 23.526 10.1983 23.5198 10.1758 23.5206C10.1597 23.5219 10.1441 23.5268 10.1303 23.5351C10.1164 23.5434 10.1047 23.5549 10.0961 23.5685C10.0874 23.5821 10.082 23.5975 10.0804 23.6136C10.0787 23.6296 10.0808 23.6458 10.0865 23.6609L10.4299 24.5813L10.6879 25.2745C10.7084 25.3279 10.7188 25.3846 10.7188 25.4418C10.719 25.5674 10.6693 25.6879 10.5808 25.7769C10.4922 25.8659 10.372 25.9162 10.2464 25.9167C10.1076 25.9097 9.97334 25.8645 9.85855 25.7861C9.74377 25.7076 9.65286 25.599 9.59586 25.4722L9.04197 24.0495C9.02725 24.0112 9.01253 23.9734 8.99929 23.9347C8.96438 23.8386 8.90952 23.7509 8.83832 23.6775C8.76713 23.6042 8.6812 23.5467 8.5862 23.5088C8.5862 23.5088 8.91981 22.7464 8.10983 22.377C8.10983 22.377 8.26485 21.4836 7.34743 21.1505C7.34743 21.1505 7.35135 21.1412 7.35724 21.1245C7.40603 20.9852 7.41758 20.8355 7.39076 20.6903C7.36393 20.5451 7.29966 20.4095 7.2043 20.2968C7.10894 20.1841 6.9858 20.0982 6.84706 20.0477C6.70833 19.9972 6.55882 19.9838 6.41332 20.0089L4.99057 20.2503C4.9685 20.2159 4.9474 20.1816 4.9263 20.1467C3.87344 18.4537 3.31849 16.4985 3.32498 14.5048C3.3289 8.62396 8.14368 3.83224 14.024 3.84745C15.7679 3.85114 17.4843 4.28244 19.0227 5.10355C20.5612 5.92465 21.8748 7.11051 22.8485 8.55723C21.929 7.42436 20.768 6.51114 19.4505 5.88423C18.1329 5.25732 16.692 4.93256 15.2329 4.93364C10.269 4.93364 6.16606 8.61856 5.50767 13.4014Z" fill="#1870A3"/>
<path d="M5.59034 21.5875L6.71382 21.4031C6.79413 21.3902 6.8711 21.3616 6.9403 21.3188C7.00951 21.2761 7.06959 21.2201 7.11708 21.1541C7.16458 21.0881 7.19856 21.0133 7.21706 20.9341C7.23557 20.8549 7.23824 20.7729 7.22493 20.6926C7.21161 20.6124 7.18256 20.5356 7.13946 20.4666C7.09635 20.3976 7.04005 20.3379 6.97377 20.2907C6.90749 20.2436 6.83254 20.21 6.75324 20.1919C6.67394 20.1739 6.59186 20.1716 6.5117 20.1854L5.3892 20.3699C5.30843 20.3822 5.23091 20.4104 5.16114 20.453C5.09137 20.4955 5.03074 20.5514 4.98276 20.6176C4.93478 20.6837 4.90041 20.7587 4.88164 20.8382C4.86288 20.9177 4.86009 21.0002 4.87343 21.0808C4.88678 21.1614 4.916 21.2386 4.9594 21.3078C5.0028 21.377 5.05951 21.4369 5.12625 21.4841C5.19298 21.5312 5.26841 21.5646 5.34817 21.5824C5.42792 21.6002 5.5104 21.6019 5.59083 21.5875H5.59034Z" fill="#1870A3"/>
<path d="M7.79361 21.9071C7.78034 21.8271 7.75143 21.7504 7.70854 21.6816C7.66565 21.6128 7.60962 21.5531 7.54364 21.5059C7.47767 21.4588 7.40305 21.4251 7.32405 21.4068C7.24504 21.3885 7.16321 21.3859 7.08322 21.3993L5.55352 21.6936C5.39198 21.7204 5.24771 21.8103 5.15244 21.9435C5.05716 22.0767 5.0187 22.2422 5.0455 22.4038C5.0723 22.5653 5.16218 22.7096 5.29536 22.8049C5.42854 22.9001 5.59411 22.9386 5.75565 22.9118L7.28535 22.6174C7.44695 22.5906 7.59128 22.5007 7.6866 22.3675C7.78192 22.2343 7.82041 22.0687 7.79361 21.9071Z" fill="#1870A3"/>
<path d="M8.30809 23.1776C8.29482 23.0976 8.26591 23.021 8.22302 22.9521C8.18013 22.8833 8.12409 22.8236 8.05812 22.7765C7.99214 22.7293 7.91752 22.6956 7.83852 22.6773C7.75952 22.659 7.67768 22.6564 7.59769 22.6698L6.47667 22.8557C6.31591 22.8833 6.17261 22.9734 6.07809 23.1063C5.98356 23.2392 5.94549 23.4042 5.9722 23.5651C5.99891 23.726 6.08823 23.8698 6.22063 23.965C6.35303 24.0603 6.51775 24.0992 6.67879 24.0734L7.79982 23.8875C7.87982 23.8742 7.95643 23.8454 8.02527 23.8026C8.09411 23.7597 8.15384 23.7037 8.20104 23.6378C8.24825 23.5719 8.28199 23.4973 8.30036 23.4183C8.31873 23.3394 8.32135 23.2575 8.30809 23.1776Z" fill="#1870A3"/>
<path d="M8.37543 23.8609L7.45506 24.0081C7.2943 24.0357 7.15101 24.1258 7.05648 24.2587C6.96195 24.3916 6.92389 24.5566 6.95059 24.7175C6.9773 24.8784 7.06662 25.0222 7.19902 25.1174C7.33142 25.2127 7.49614 25.2516 7.65719 25.2258L8.57756 25.0786C8.65786 25.0657 8.73483 25.0371 8.80404 24.9944C8.87324 24.9517 8.93332 24.8957 8.98081 24.8297C9.02831 24.7636 9.06229 24.6889 9.0808 24.6097C9.0993 24.5305 9.10198 24.4484 9.08866 24.3682C9.07534 24.2879 9.04629 24.2111 9.00319 24.1421C8.96009 24.0732 8.90378 24.0134 8.8375 23.9663C8.77122 23.9191 8.69627 23.8856 8.61698 23.8675C8.53768 23.8494 8.45559 23.8472 8.37543 23.8609Z" fill="#1870A3"/>
</g>
<defs>
<filter id="filter0_dd_2436_1913" x="-1.12" y="0.16" width="30.24" height="30.24" filterUnits="userSpaceOnUse" color-interpolation-filters="sRGB">
<feFlood flood-opacity="0" result="BackgroundImageFix"/>
<feColorMatrix in="SourceAlpha" type="matrix" values="0 0 0 0 0 0 0 0 0 0 0 0 0 0 0 0 0 0 127 0" result="hardAlpha"/>
<feOffset dy="0.28"/>
<feGaussianBlur stdDeviation="0.28"/>
<feColorMatrix type="matrix" values="0 0 0 0 0 0 0 0 0 0 0 0 0 0 0 0 0 0 0.3 0"/>
<feBlend mode="normal" in2="BackgroundImageFix" result="effect1_dropShadow_2436_1913"/>
<feColorMatrix in="SourceAlpha" type="matrix" values="0 0 0 0 0 0 0 0 0 0 0 0 0 0 0 0 0 0 127 0" result="hardAlpha"/>
<feMorphology radius="0.28" operator="dilate" in="SourceAlpha" result="effect2_dropShadow_2436_1913"/>
<feOffset dy="0.28"/>
<feGaussianBlur stdDeviation="0.42"/>
<feColorMatrix type="matrix" values="0 0 0 0 0 0 0 0 0 0 0 0 0 0 0 0 0 0 0.15 0"/>
<feBlend mode="normal" in2="effect1_dropShadow_2436_1913" result="effect2_dropShadow_2436_1913"/>
<feBlend mode="normal" in="SourceGraphic" in2="effect2_dropShadow_2436_1913" result="shape"/>
</filter>
<linearGradient id="paint0_linear_2436_1913" x1="13.7589" y1="11.9993" x2="13.808" y2="19.7955" gradientUnits="userSpaceOnUse">
<stop stop-color="#03B9D7"/>
<stop offset="0.47" stop-color="#04B7D6"/>
<stop offset="0.64" stop-color="#07B0D2"/>
<stop offset="0.76" stop-color="#0CA5CC"/>
<stop offset="0.86" stop-color="#1394C3"/>
<stop offset="0.94" stop-color="#1D7EB7"/>
<stop offset="0.95" stop-color="#1E7CB6"/>
</linearGradient>
</defs>
</svg>
