<svg width="50" height="50" viewBox="0 0 50 50" fill="none" xmlns="http://www.w3.org/2000/svg">
<rect width="50" height="50" rx="25" fill="#F1FAFF"/>
<g clip-path="url(#clip0_2021_2187)">
<path fill-rule="evenodd" clip-rule="evenodd" d="M34.7062 24.7299C34.8142 24.7898 34.9366 24.8188 35.06 24.8137C35.1833 24.8086 35.303 24.7696 35.4057 24.7009C35.5085 24.6323 35.5904 24.5366 35.6426 24.4243C35.6948 24.3121 35.7152 24.1876 35.7016 24.0645C35.6881 23.9414 35.641 23.8244 35.5656 23.7264C35.4902 23.6283 35.3894 23.5529 35.2741 23.5084C35.1589 23.4639 35.0337 23.4521 34.9122 23.4742C34.7907 23.4962 34.6775 23.5514 34.5852 23.6336L30.4962 21.2172C30.508 21.1815 30.5181 21.1456 30.527 21.1094L34.5916 21.85C34.6199 21.9698 34.6885 22.0761 34.7858 22.1512C34.8831 22.2262 35.0032 22.2653 35.1259 22.262C35.2486 22.2587 35.3664 22.2132 35.4596 22.133C35.5527 22.0529 35.6155 21.943 35.6374 21.8219C35.6594 21.7008 35.639 21.5758 35.5799 21.4679C35.5208 21.36 35.4264 21.2759 35.3127 21.2295C35.199 21.1832 35.0728 21.1776 34.9555 21.2135C34.8381 21.2495 34.7366 21.3249 34.6681 21.427L30.5634 20.6791C30.56 20.6285 30.5539 20.578 30.545 20.5281L33.8657 19.6972C33.8867 19.7159 33.9097 19.7321 33.9343 19.7456C34.0016 19.7829 34.0783 19.7993 34.1549 19.7929C34.2314 19.7864 34.3043 19.7574 34.3644 19.7093C34.4245 19.6613 34.4691 19.5965 34.4924 19.5231C34.5158 19.4497 34.5169 19.371 34.4957 19.2969C34.4745 19.2229 34.4318 19.1568 34.3732 19.107C34.3145 19.0573 34.2424 19.0261 34.1661 19.0174C34.0898 19.0088 34.0126 19.023 33.9443 19.0583C33.876 19.0936 33.8197 19.1484 33.7825 19.2159C33.7708 19.2371 33.7612 19.2595 33.7536 19.2825L30.4068 20.1197C30.376 20.06 30.3409 20.0026 30.3018 19.9478L32.0248 18.7004C32.1547 18.7938 32.3134 18.8378 32.4727 18.8246C32.632 18.8114 32.7814 18.7418 32.8943 18.6283C33.0071 18.5147 33.076 18.3646 33.0887 18.2048C33.1013 18.045 33.0569 17.8859 32.9634 17.7559C32.8698 17.6259 32.7333 17.5335 32.5781 17.4952C32.4229 17.457 32.2591 17.4753 32.1162 17.5469C31.9732 17.6185 31.8602 17.7388 31.7975 17.8863C31.7349 18.0338 31.7265 18.1988 31.7739 18.3518L29.9981 19.6375C29.9655 19.6132 29.9315 19.5899 29.8962 19.5682L30.8329 16.9766C30.9931 16.9698 31.1457 16.9061 31.2634 16.7968C31.381 16.6876 31.4561 16.5399 31.4752 16.3802C31.4943 16.2205 31.4562 16.0592 31.3676 15.9252C31.2791 15.7911 31.1458 15.693 30.9918 15.6484C30.8377 15.6038 30.6729 15.6155 30.5267 15.6816C30.3805 15.7477 30.2625 15.8638 30.1938 16.0091C30.1251 16.1544 30.1101 16.3195 30.1516 16.4748C30.1931 16.6302 30.2883 16.7656 30.4202 16.8571L29.5014 19.3995C29.4608 19.3892 29.4201 19.3807 29.3791 19.374L29.2985 17.5943C29.4126 17.5514 29.5086 17.4707 29.5707 17.3655C29.6328 17.2604 29.6572 17.1372 29.6398 17.0162C29.6225 16.8953 29.5645 16.7839 29.4754 16.7006C29.3864 16.6172 29.2716 16.5669 29.1501 16.5579C29.0286 16.549 28.9077 16.5819 28.8074 16.6513C28.7072 16.7207 28.6336 16.8224 28.5988 16.9395C28.564 17.0566 28.5702 17.1821 28.6163 17.2952C28.6624 17.4083 28.7456 17.5022 28.8522 17.5614C28.8576 17.5644 28.8632 17.5672 28.8687 17.57L28.9502 19.3705C28.7377 19.4015 28.535 19.4803 28.3573 19.6011C28.2342 19.3355 28.185 18.9357 28.1327 18.4096C28.0022 17.1006 27.8482 15.8841 27.9434 14.5339C27.9774 14.0533 27.7111 14.2118 27.3471 14.2118C26.9832 14.2118 26.7168 14.0533 26.7507 14.5339C26.8459 15.884 26.692 17.1006 26.5615 18.4096C26.4695 19.3321 26.3878 19.8664 25.8997 19.9685C25.9027 18.9279 25.4257 16.4858 24.5155 16.4842C23.0024 16.4816 21.5391 18.786 20.7717 20.5525C20.0089 22.3085 19.6198 25.3668 19.6769 27.51C19.7697 30.9989 20.2141 29.9838 22.2399 28.6938C23.8191 27.6883 24.5381 29.5155 25.2969 27.1788C25.9766 25.0852 26.0493 24.0242 25.9705 21.1855C26.2393 21.0864 26.488 20.6831 26.7519 20.389C27.0956 20.0064 27.4771 19.9686 27.8282 20.276C27.7257 20.5504 27.7103 20.8499 27.7842 21.1334C27.858 21.4169 28.0176 21.6706 28.2409 21.8595L27.728 24.4256C27.6314 24.455 27.5473 24.5159 27.4891 24.5987C27.4309 24.6816 27.4019 24.7815 27.4068 24.8827C27.4117 24.9839 27.4501 25.0805 27.516 25.1573C27.5819 25.2341 27.6715 25.2866 27.7705 25.3065C27.8696 25.3264 27.9724 25.3126 28.0627 25.2672C28.153 25.2218 28.2256 25.1474 28.269 25.0559C28.3123 24.9644 28.324 24.861 28.3021 24.7621C28.2802 24.6632 28.2259 24.5745 28.148 24.51L28.631 22.0935C28.6669 22.1075 28.7029 22.1203 28.7393 22.1314L29.4942 27.2306C29.3904 27.296 29.3123 27.3952 29.2728 27.5115C29.2334 27.6279 29.2351 27.7543 29.2776 27.8696C29.3201 27.9849 29.4009 28.0819 29.5063 28.1445C29.6118 28.2071 29.7355 28.2314 29.8567 28.2133C29.9779 28.1952 30.0892 28.1358 30.1719 28.0452C30.2546 27.9545 30.3037 27.838 30.3109 27.7153C30.3181 27.5927 30.283 27.4712 30.2115 27.3714C30.1399 27.2716 30.0364 27.1996 29.9181 27.1673L29.1815 22.193C29.2418 22.1916 29.302 22.1865 29.3617 22.1775L32.4238 28.47C32.278 28.6151 32.1899 28.8085 32.1759 29.014C32.1619 29.2195 32.223 29.4231 32.3478 29.5868C32.4725 29.7504 32.6524 29.8629 32.8539 29.9032C33.0553 29.9435 33.2644 29.9088 33.4423 29.8057C33.6201 29.7026 33.7544 29.5381 33.8201 29.3429C33.8858 29.1477 33.8783 28.9352 33.7992 28.7451C33.7201 28.555 33.5746 28.4003 33.3901 28.3099C33.2055 28.2196 32.9944 28.1997 32.7963 28.254L29.7813 22.0453C29.8277 22.0222 29.8728 21.9966 29.9165 21.9686L34.5616 26.6389C34.5569 26.6594 34.5534 26.6802 34.5512 26.7012C34.5389 26.8157 34.565 26.9311 34.6254 27.029C34.6858 27.127 34.7771 27.2019 34.8848 27.2418C34.9925 27.2818 35.1105 27.2846 35.2199 27.2497C35.3294 27.2149 35.4241 27.1443 35.489 27.0493C35.554 26.9544 35.5854 26.8403 35.5784 26.7254C35.5714 26.6104 35.5264 26.5011 35.4504 26.4147C35.3744 26.3283 35.2718 26.2699 35.159 26.2486C35.0461 26.2274 34.9294 26.2445 34.8273 26.2974L30.2382 21.6836C30.254 21.6646 30.2695 21.6449 30.2843 21.6251L34.3711 24.0102C34.344 24.1503 34.3619 24.2953 34.4221 24.4246C34.4823 24.5539 34.5817 24.6607 34.7062 24.7299ZM34.8807 21.5989C34.9058 21.5531 34.9439 21.5158 34.9902 21.4917C35.0364 21.4675 35.0888 21.4577 35.1406 21.4634C35.1924 21.4692 35.2414 21.4902 35.2813 21.5238C35.3212 21.5574 35.3503 21.6022 35.3648 21.6524C35.3794 21.7026 35.3788 21.756 35.3631 21.8059C35.3474 21.8557 35.3173 21.8998 35.2766 21.9325C35.2359 21.9652 35.1865 21.9851 35.1346 21.9896C35.0826 21.9941 35.0305 21.9831 34.9848 21.958C34.9236 21.9242 34.8782 21.8674 34.8586 21.8001C34.8391 21.7328 34.847 21.6604 34.8806 21.5989H34.8807ZM32.1457 17.8601C32.2031 17.8063 32.2752 17.7707 32.3528 17.758C32.4303 17.7452 32.5099 17.7558 32.5815 17.7884C32.653 17.821 32.7134 17.8742 32.7548 17.9411C32.7963 18.0081 32.817 18.0859 32.8143 18.1647C32.8117 18.2435 32.7858 18.3198 32.74 18.3838C32.6941 18.4479 32.6304 18.4968 32.5568 18.5245C32.4832 18.5522 32.4031 18.5575 32.3266 18.5395C32.25 18.5215 32.1805 18.4812 32.1268 18.4236C32.0912 18.3854 32.0634 18.3405 32.045 18.2915C32.0267 18.2424 32.0181 18.1903 32.0199 18.138C32.0216 18.0856 32.0337 18.0342 32.0553 17.9865C32.0768 17.9388 32.1076 17.8959 32.1457 17.8601ZM29.5468 27.5575C29.5719 27.5117 29.61 27.4744 29.6563 27.4503C29.7025 27.4261 29.7548 27.4163 29.8067 27.422C29.8585 27.4278 29.9074 27.4488 29.9473 27.4824C29.9873 27.516 30.0163 27.5608 30.0309 27.611C30.0455 27.6612 30.0448 27.7146 30.0291 27.7644C30.0134 27.8143 29.9834 27.8584 29.9427 27.8911C29.902 27.9238 29.8526 27.9436 29.8007 27.9482C29.7487 27.9527 29.6966 27.9417 29.6509 27.9165C29.5897 27.8827 29.5443 27.826 29.5248 27.7586C29.5053 27.6913 29.5132 27.619 29.5468 27.5575ZM32.6787 28.7057C32.7507 28.6381 32.8411 28.5935 32.9384 28.5775C33.0357 28.5615 33.1355 28.5748 33.2253 28.6157C33.3151 28.6566 33.3907 28.7232 33.4427 28.8073C33.4947 28.8913 33.5207 28.9889 33.5174 29.0877C33.5141 29.1865 33.4816 29.2822 33.4241 29.3625C33.3666 29.4428 33.2867 29.5043 33.1943 29.539C33.102 29.5738 33.0015 29.5803 32.9055 29.5577C32.8095 29.5352 32.7223 29.4846 32.655 29.4123C32.5648 29.3155 32.5166 29.1866 32.521 29.0541C32.5255 28.9216 32.5822 28.7963 32.6788 28.7057H32.6787ZM28.8806 16.9642C28.9058 16.9185 28.944 16.8813 28.9904 16.8573C29.0367 16.8334 29.0891 16.8237 29.1409 16.8296C29.1926 16.8355 29.2415 16.8567 29.2813 16.8905C29.3211 16.9242 29.35 16.9691 29.3644 17.0193C29.3788 17.0696 29.378 17.123 29.3622 17.1728C29.3463 17.2226 29.316 17.2665 29.2753 17.2991C29.2345 17.3316 29.185 17.3513 29.133 17.3557C29.0811 17.36 29.029 17.3488 28.9834 17.3235C28.9223 17.2895 28.8771 17.2326 28.8579 17.1652C28.8386 17.0979 28.8467 17.0256 28.8806 16.9642ZM29.908 21.1944C29.8253 21.3443 29.7 21.4662 29.5481 21.5448C29.3962 21.6233 29.2245 21.6549 29.0547 21.6356C28.8849 21.6162 28.7247 21.5468 28.5942 21.4361C28.4637 21.3254 28.3689 21.1784 28.3218 21.0137C28.2746 20.849 28.2772 20.6739 28.3292 20.5106C28.3813 20.3474 28.4804 20.2033 28.6141 20.0965C28.7478 19.9898 28.91 19.9252 29.0803 19.9109C29.2506 19.8967 29.4213 19.9334 29.5708 20.0164C29.6701 20.0715 29.7575 20.1457 29.8282 20.2348C29.8989 20.3238 29.9514 20.426 29.9827 20.5353C30.014 20.6447 30.0235 20.7592 30.0107 20.8723C29.9979 20.9854 29.963 21.0949 29.908 21.1944V21.1944Z" fill="url(#paint0_linear_2021_2187)"/>
</g>
<path fill-rule="evenodd" clip-rule="evenodd" d="M19.6505 32.5789C19.6505 32.5789 21.3003 30.8435 23.7184 31.2766C26.6544 31.8025 27.9044 32.6008 30.6669 31.4512C31.6742 34.3427 28.3057 34.2468 26.5172 34.206C23.0466 34.1271 27.3204 36.5373 30.6971 35.5198C32.1425 35.1203 34.0248 34.3806 35.3415 33.5324C36.6582 32.6841 37 33.6606 37 33.6606C30.408 43.994 12.0093 37.4933 13.0417 23.8359C13.6549 15.7244 21.5888 8.71076 31.1819 12.1547C31.3393 12.2112 31.495 12.2703 31.6489 12.3319C17.1656 7.73963 10.79 27.0709 19.6505 32.5789ZM29.7944 35.1493C29.7944 35.1493 33.0916 33.3044 34.0141 32.2985C34.2326 31.9527 34.4731 31.6952 34.7441 31.5615C34.7441 31.5615 34.051 31.0713 33.5392 31.6929C33.0274 32.3145 32.124 33.4114 29.7944 35.1491V35.1493ZM29.9318 35.4281C29.9318 35.4281 33.4496 34.6411 35.714 32.9411L36.4714 32.3324C35.7493 31.2875 34.8419 31.3983 34.1422 32.5701C33.521 33.362 29.9318 35.4281 29.9318 35.4281Z" fill="url(#paint1_linear_2021_2187)"/>
<defs>
<linearGradient id="paint0_linear_2021_2187" x1="32.3385" y1="16.4051" x2="23.7243" y2="31.9476" gradientUnits="userSpaceOnUse">
<stop stop-color="#008DD5"/>
<stop offset="0.995" stop-color="#1470A4"/>
</linearGradient>
<linearGradient id="paint1_linear_2021_2187" x1="25" y1="11.2568" x2="25" y2="38.743" gradientUnits="userSpaceOnUse">
<stop stop-color="#38B6FF"/>
<stop offset="1" stop-color="#1470A4"/>
</linearGradient>
<clipPath id="clip0_2021_2187">
<rect width="16.0348" height="15.7313" fill="white" transform="translate(19.6714 14.1868)"/>
</clipPath>
</defs>
</svg>
