<svg width="25" height="26" viewBox="0 0 25 26" fill="none" xmlns="http://www.w3.org/2000/svg">
<rect y="0.5" width="25" height="25" rx="12.5" fill="#59ACD9"/>
<path d="M12.5006 22C10.4184 22.0001 8.40061 21.2783 6.79095 19.9575C5.1813 18.6366 4.07942 16.7986 3.67306 14.7564C3.26671 12.7142 3.58102 10.5943 4.56245 8.75793C5.54387 6.92153 7.13168 5.48224 9.05534 4.6853C10.979 3.88835 13.1195 3.78307 15.1121 4.38738C17.1046 4.9917 18.826 6.26822 19.9829 7.99944C21.1398 9.73066 21.6607 11.8095 21.4567 13.8817C21.2527 15.9538 20.3365 17.8912 18.8643 19.3636C18.0304 20.2018 17.0387 20.8664 15.9464 21.3189C14.8541 21.7714 13.683 22.0029 12.5006 22ZM12.5006 5.02317C10.6552 5.02416 8.86713 5.66501 7.44118 6.83654C6.01523 8.00806 5.03961 9.63776 4.68054 11.448C4.32148 13.2582 4.60119 15.1369 5.47201 16.764C6.34283 18.3911 7.75089 19.6659 9.45627 20.3712C11.1617 21.0766 13.0588 21.1687 14.8246 20.6321C16.5903 20.0954 18.1153 18.9631 19.1398 17.4281C20.1642 15.8931 20.6248 14.0504 20.4429 12.2139C20.261 10.3774 19.448 8.66075 18.1423 7.3565C17.4019 6.61532 16.5223 6.02765 15.5542 5.62724C14.586 5.22682 13.5483 5.02154 12.5006 5.02317Z" fill="white"/>
<path d="M12.4989 18.515C11.5104 18.5263 10.5501 18.1857 9.78946 17.5542C8.9695 16.8573 8.51317 15.8626 8.47217 14.6826C8.47217 11.2958 12.0871 7.73073 12.2422 7.58456L12.4882 7.3457L12.7431 7.57387C13.4397 8.22393 14.0713 8.94033 14.629 9.7129C15.8911 11.4509 16.5292 13.1193 16.5292 14.6701V14.6826C16.4864 15.8644 16.0301 16.8573 15.2066 17.556C14.4462 18.1865 13.4866 18.5263 12.4989 18.515ZM12.5078 8.37244C11.6985 9.22805 9.20301 12.089 9.20301 14.6719C9.27787 16.8002 10.9606 17.7771 12.4918 17.7771C14.023 17.7771 15.7003 16.8038 15.7859 14.6665C15.7984 11.8644 13.3189 9.17636 12.5078 8.37244Z" fill="white"/>
<path d="M9.12272 15.8555L6.23681 18.7414C6.18547 18.793 6.15054 18.8586 6.13641 18.93C6.12228 19.0014 6.12959 19.0754 6.15741 19.1427C6.18522 19.2099 6.23231 19.2675 6.29275 19.308C6.35319 19.3486 6.42427 19.3704 6.49706 19.3706C6.59503 19.3706 6.68911 19.3322 6.75909 19.2637L9.55944 16.4651C9.3944 16.2766 9.24813 16.0724 9.12272 15.8555Z" fill="white"/>
<path d="M18.7643 6.73623C18.73 6.7019 18.6893 6.67466 18.6445 6.65608C18.5997 6.6375 18.5516 6.62793 18.5031 6.62793C18.4546 6.62793 18.4066 6.6375 18.3618 6.65608C18.317 6.67466 18.2763 6.7019 18.242 6.73623L14.791 10.189C14.9254 10.4124 15.0394 10.6474 15.1315 10.8913L18.7643 7.25851C18.7986 7.22424 18.8258 7.18354 18.8444 7.13873C18.863 7.09392 18.8726 7.04588 18.8726 6.99737C18.8726 6.94886 18.863 6.90083 18.8444 6.85602C18.8258 6.81121 18.7986 6.7705 18.7643 6.73623Z" fill="white"/>
<path d="M12.6377 16.9535C11.3507 16.9535 10.0245 16.2316 9.96387 14.622C9.96387 14.5507 9.96387 14.4776 9.96387 14.4045C9.96708 14.0756 10.0157 13.7487 10.1083 13.433C10.1351 13.3584 10.1893 13.2967 10.2598 13.2604C10.3303 13.2241 10.412 13.2158 10.4883 13.2373C10.5647 13.2588 10.6301 13.3083 10.6713 13.3761C10.7126 13.4438 10.7267 13.5247 10.7107 13.6024C10.634 13.863 10.5932 14.1328 10.5895 14.4045V14.5988C10.6519 16.2441 12.3079 16.3278 12.6394 16.3278C12.7183 16.3338 12.7921 16.3694 12.8459 16.4274C12.8996 16.4854 12.9295 16.5616 12.9295 16.6407C12.9295 16.7198 12.8996 16.796 12.8459 16.854C12.7921 16.912 12.7183 16.9476 12.6394 16.9535H12.6377Z" fill="white"/>
</svg>
