<svg width="51" height="50" viewBox="0 0 51 50" fill="none" xmlns="http://www.w3.org/2000/svg">
<rect x="0.666992" width="50" height="50" rx="25" fill="#F0F7FF"/>
<path d="M25.6682 39.6631C22.2758 39.6633 18.9882 38.4873 16.3657 36.3353C13.7432 34.1834 11.9479 31.1887 11.2859 27.8615C10.6238 24.5343 11.1359 21.0805 12.7349 18.0885C14.3339 15.0966 16.9208 12.7516 20.0549 11.4532C23.189 10.1548 26.6764 9.98324 29.9228 10.9678C33.1692 11.9524 35.9738 14.0322 37.8587 16.8527C39.7435 19.6733 40.5921 23.0602 40.2598 26.4363C39.9274 29.8124 38.4348 32.9688 36.0361 35.3678C34.6776 36.7334 33.0618 37.8162 31.2822 38.5534C29.5026 39.2907 27.5944 39.6678 25.6682 39.6631ZM25.6682 12.0037C22.6614 12.0053 19.7483 13.0494 17.4251 14.9581C15.1018 16.8668 13.5123 19.522 12.9273 22.4713C12.3423 25.4205 12.798 28.4814 14.2168 31.1324C15.6356 33.7833 17.9297 35.8603 20.7081 37.0094C23.4866 38.1586 26.5776 38.3088 29.4544 37.4344C32.3312 36.5601 34.8158 34.7153 36.4849 32.2144C38.1541 29.7135 38.9044 26.7112 38.6081 23.7191C38.3117 20.727 36.9871 17.9302 34.8599 15.8052C33.6535 14.5977 32.2205 13.6402 30.6431 12.9878C29.0658 12.3355 27.3751 12.001 25.6682 12.0037Z" fill="#1870A3"/>
<path d="M25.6655 33.9854C24.055 34.0037 22.4904 33.4489 21.2512 32.4201C19.9153 31.2845 19.1718 29.664 19.105 27.7414C19.105 22.2235 24.9946 16.4151 25.2473 16.177L25.6481 15.7878L26.0634 16.1596C27.1983 17.2187 28.2274 18.3859 29.136 19.6446C31.1922 22.4762 32.2319 25.1945 32.2319 27.7211V27.7414C32.1622 29.6669 31.4187 31.2845 30.077 32.423C28.8381 33.4501 27.2747 34.0038 25.6655 33.9854ZM25.68 17.4606C24.3615 18.8546 20.2957 23.5158 20.2957 27.724C20.4177 31.1916 23.1592 32.7831 25.6539 32.7831C28.1486 32.7831 30.8814 31.1974 31.0208 27.7153C31.0411 23.1499 27.0014 18.7704 25.68 17.4606Z" fill="#1870A3"/>
<path d="M20.1645 29.6523L15.4626 34.3542C15.379 34.4383 15.3221 34.5452 15.299 34.6615C15.276 34.7779 15.2879 34.8984 15.3332 35.008C15.3786 35.1176 15.4553 35.2113 15.5537 35.2774C15.6522 35.3435 15.768 35.379 15.8866 35.3794C16.0462 35.3794 16.1995 35.3168 16.3135 35.2051L20.876 30.6456C20.6071 30.3384 20.3688 30.0058 20.1645 29.6523Z" fill="#1870A3"/>
<path d="M35.8733 14.7949C35.8175 14.7389 35.7512 14.6946 35.6781 14.6643C35.6051 14.634 35.5269 14.6184 35.4478 14.6184C35.3688 14.6184 35.2906 14.634 35.2175 14.6643C35.1445 14.6946 35.0782 14.7389 35.0224 14.7949L29.3999 20.4202C29.6189 20.7842 29.8045 21.1672 29.9546 21.5645L35.8733 15.6458C35.9293 15.5899 35.9736 15.5236 36.0039 15.4506C36.0342 15.3776 36.0498 15.2994 36.0498 15.2203C36.0498 15.1413 36.0342 15.063 36.0039 14.99C35.9736 14.917 35.9293 14.8507 35.8733 14.7949Z" fill="#1870A3"/>
<path d="M25.8914 31.4414C23.7946 31.4414 21.6339 30.2652 21.5352 27.6427C21.5352 27.5266 21.5352 27.4075 21.5352 27.2884C21.5404 26.7525 21.6196 26.2199 21.7704 25.7056C21.8142 25.5841 21.9024 25.4836 22.0173 25.4244C22.1322 25.3652 22.2652 25.3518 22.3896 25.3867C22.514 25.4217 22.6206 25.5025 22.6878 25.6129C22.755 25.7232 22.778 25.8549 22.752 25.9815C22.627 26.4061 22.5606 26.8458 22.5545 27.2884V27.605C22.6562 30.2855 25.3542 30.422 25.8943 30.422C26.0229 30.4317 26.143 30.4896 26.2306 30.5842C26.3183 30.6787 26.367 30.8028 26.367 30.9317C26.367 31.0606 26.3183 31.1847 26.2306 31.2793C26.143 31.3738 26.0229 31.4317 25.8943 31.4414H25.8914Z" fill="#1870A3"/>
</svg>
